<svg xmlns="http://www.w3.org/2000/svg" width="64" height="64" fill="none"><g clip-path="url(#a)"><path fill="#4D5AE5" d="M29.851 29.93h2.132v9.594h-2.132V29.93ZM38.38 34.194h2.132v5.33H38.38v-5.33ZM21.322 37.392h2.132v2.132h-2.132v-2.132ZM14.925 36.326h2.133v3.198h-2.133v-3.198Z"/><path fill="#2E2F42" d="M3.198 56.086h51.173a3.199 3.199 0 0 0 3.199-3.199v-4.264a3.199 3.199 0 0 0-3.199-3.198h-1.066V18.838l6.056-5.737a3.216 3.216 0 1 0-1.493-1.526l-4.563 4.326v-2.46a3.198 3.198 0 0 0-3.198-3.198H7.463a3.199 3.199 0 0 0-3.199 3.198v31.983H3.198A3.199 3.199 0 0 0 0 48.623v4.264a3.199 3.199 0 0 0 3.198 3.199Zm57.57-46.91a1.066 1.066 0 1 1 0 2.133 1.066 1.066 0 0 1 0-2.132ZM6.397 13.442c0-.589.477-1.066 1.066-1.066h42.644c.589 0 1.066.477 1.066 1.066v4.478l-2.132 2.026v-4.372c0-.588-.477-1.066-1.066-1.066H9.595c-.589 0-1.066.478-1.066 1.066v26.653c0 .589.477 1.066 1.066 1.066h38.38c.589 0 1.066-.477 1.066-1.066V22.877l2.132-2.02v24.568H6.397V13.44Zm9.595 13.86a3.198 3.198 0 1 0 2.214 5.496l3.706 1.86c.43.215.953.114 1.273-.245l7.877-8.863 7.744 5.803c.416.311.996.278 1.372-.079l6.73-6.375V41.16H10.662V16.64H46.91v5.32l-7.543 7.143-7.81-5.854a1.067 1.067 0 0 0-1.435.144l-7.986 8.986-2.986-1.493c.022-.128.036-.257.041-.387a3.199 3.199 0 0 0-3.198-3.198Zm1.066 3.198a1.066 1.066 0 1 1-2.133 0 1.066 1.066 0 0 1 2.133 0Zm6.396 17.058h10.661v1.066c0 .589-.477 1.066-1.066 1.066H24.52a1.066 1.066 0 0 1-1.066-1.066v-1.066ZM2.132 48.623c0-.589.478-1.066 1.066-1.066h18.124v1.066a3.198 3.198 0 0 0 3.198 3.198h8.53a3.198 3.198 0 0 0 3.198-3.198v-1.066H54.37c.59 0 1.067.477 1.067 1.066v4.264c0 .589-.478 1.066-1.067 1.066H3.198a1.066 1.066 0 0 1-1.066-1.066v-4.264Z"/></g><defs><clipPath id="a"><path fill="#fff" d="M0 0h64v64H0z"/></clipPath></defs></svg>